<?xml version="1.0" standalone="no"?>
<!DOCTYPE svg PUBLIC "-//W3C//DTD SVG 20010904//EN"
 "http://www.w3.org/TR/2001/REC-SVG-20010904/DTD/svg10.dtd">
<svg version="1.0" xmlns="http://www.w3.org/2000/svg"
 width="150.000000pt" height="150.000000pt" viewBox="0 0 150.000000 150.000000"
 preserveAspectRatio="xMidYMid meet">
<metadata>
Created by potrace 1.14, written by Peter Selinger 2001-2017
</metadata>
<g transform="translate(0.000000,150.000000) scale(0.100000,-0.100000)"
fill="#000000" stroke="none">
<path d="M666 1374 c-57 -18 -107 -50 -134 -85 -28 -37 -72 -120 -68 -128 3
-4 -5 -18 -16 -31 -11 -14 -17 -18 -13 -10 4 8 -1 6 -9 -4 -12 -15 -13 -23 -4
-33 8 -10 7 -17 -7 -27 -14 -10 -16 -21 -12 -47 4 -22 1 -40 -8 -52 -13 -18
-14 -18 -25 2 -14 26 -42 27 -64 2 -18 -20 -18 -20 -40 1 -14 14 -17 22 -8 25
14 6 16 33 2 33 -5 0 -10 -7 -10 -15 0 -8 -4 -15 -10 -15 -5 0 -10 -7 -10 -17
0 -26 -11 -8 -20 33 -6 27 -5 41 3 46 9 6 9 8 0 8 -6 0 -18 -6 -25 -13 -8 -9
-35 -13 -68 -13 -36 1 -54 -3 -53 -10 1 -7 -9 -15 -22 -18 -24 -6 -35 -26 -15
-26 5 0 7 -7 4 -15 -4 -8 -12 -15 -20 -15 -11 0 -13 -67 -14 -375 l0 -374 30
11 c17 5 33 8 36 5 3 -3 -11 -10 -30 -17 -25 -8 -36 -18 -36 -31 0 -10 6 -19
13 -19 8 0 7 -4 -3 -10 -13 -9 -13 -11 0 -20 10 -6 11 -10 3 -10 -9 0 -13 -18
-13 -54 l0 -54 750 -2 750 -1 0 166 0 165 -27 0 c-16 -1 -49 4 -75 11 -39 10
-44 14 -33 26 17 16 32 17 38 1 3 -7 6 -3 6 10 1 19 -4 22 -42 22 -37 0 -46 4
-55 25 -6 14 -16 25 -22 25 -19 0 -10 17 16 28 19 9 24 9 18 0 -5 -8 -2 -9 10
-5 10 4 29 7 42 7 19 0 24 5 24 25 0 14 -6 25 -12 25 -8 1 -6 6 5 14 25 20 59
9 51 -16 -3 -10 0 -25 6 -33 10 -12 9 -15 -3 -15 -8 0 -17 -11 -19 -25 -4 -21
-1 -26 21 -31 14 -3 32 -7 39 -10 9 -2 12 16 12 72 l0 76 -25 -6 c-14 -4 -25
-2 -25 4 0 5 11 12 25 16 l26 6 -3 147 c-3 135 -4 146 -22 149 -11 3 -26 -4
-33 -14 -7 -10 -13 -13 -13 -7 0 7 -14 8 -40 3 -22 -4 -40 -4 -40 0 0 13 -60
30 -109 31 -25 1 -57 5 -71 9 -16 5 16 9 90 10 108 1 114 2 93 17 -13 8 -23
25 -23 38 0 12 -9 30 -20 40 -11 10 -21 32 -21 49 -2 30 -2 30 -6 4 -3 -17
-11 -28 -20 -28 -9 0 -13 -6 -9 -15 3 -9 0 -15 -9 -15 -9 0 -15 10 -15 25 0
19 -5 24 -22 23 -58 -2 -71 1 -58 16 6 8 18 12 26 9 17 -6 18 3 2 20 -6 7 -24
11 -40 9 -21 -3 -28 0 -28 12 0 9 -7 16 -15 16 -9 0 -12 -6 -8 -17 4 -12 3
-15 -4 -8 -5 6 -18 33 -28 60 -30 85 -94 158 -166 193 -60 29 -160 36 -223 16z
m52 -115 c37 -8 58 -30 67 -71 4 -15 20 -39 36 -52 36 -31 39 -71 7 -80 -13
-3 -53 -6 -89 -6 -52 0 -68 -4 -73 -16 -9 -24 -7 -62 4 -69 6 -3 10 1 10 10 0
8 7 18 15 21 8 4 15 12 15 19 0 17 39 27 59 15 12 -7 7 -9 -19 -10 -34 0 -34
0 -13 -15 21 -15 36 -15 106 1 25 5 27 3 27 -28 0 -20 -12 -51 -30 -78 -17
-26 -30 -58 -30 -76 0 -17 -3 -34 -7 -38 -5 -4 -8 -11 -8 -15 0 -30 -104 -101
-148 -101 -17 0 -116 103 -118 122 -1 7 0 21 1 31 1 10 -3 24 -9 31 -28 34
-34 148 -7 145 26 -3 35 2 30 16 -5 12 1 15 27 14 33 -1 33 -2 7 -8 -20 -4
-25 -10 -19 -20 13 -20 62 -6 54 15 -8 22 -44 33 -72 22 -37 -13 -44 2 -37 75
11 95 30 127 91 148 28 9 59 15 70 12 11 -4 35 -9 53 -14z m-598 -283 c0 -3
-4 -8 -10 -11 -5 -3 -10 -1 -10 4 0 6 5 11 10 11 6 0 10 -2 10 -4z m217 -38
c-3 -8 -6 -5 -6 6 -1 11 2 17 5 13 3 -3 4 -12 1 -19z m803 -34 c0 -2 -9 -4
-20 -4 -11 0 -20 4 -20 9 0 5 9 7 20 4 11 -3 20 -7 20 -9z m347 -60 c-3 -3
-12 -4 -19 -1 -8 3 -5 6 6 6 11 1 17 -2 13 -5z m-1102 -174 c-3 -5 -1 -10 5
-10 17 0 -12 -26 -38 -34 -12 -4 -22 -3 -22 2 0 5 9 12 20 15 11 3 20 12 20
21 0 9 5 16 11 16 5 0 7 -4 4 -10z m-70 -40 c3 -5 -1 -10 -10 -10 -9 0 -13 5
-10 10 3 6 8 10 10 10 2 0 7 -4 10 -10z m394 -46 c4 3 17 -3 27 -13 29 -26 44
-29 89 -16 45 13 79 9 68 -7 -4 -8 0 -9 11 -5 10 4 15 3 11 -3 -4 -6 0 -17 9
-25 8 -9 14 -33 14 -59 0 -25 3 -50 6 -55 3 -5 2 -11 -3 -13 -15 -5 -16 -95
-1 -112 11 -14 10 -19 -4 -34 -9 -10 -13 -22 -9 -26 4 -4 0 -4 -10 0 -12 4
-17 1 -17 -10 0 -9 -6 -13 -14 -10 -8 3 -19 -3 -26 -16 -6 -11 -15 -18 -21
-14 -5 3 -17 0 -25 -7 -21 -17 -130 -6 -239 26 -102 30 -141 59 -132 97 7 27
47 78 47 59 0 -26 19 2 35 52 9 28 29 62 43 75 29 25 92 56 106 53 5 -1 6 5 3
13 -3 8 -9 31 -13 52 l-7 37 22 -22 c12 -12 25 -19 30 -17z m-459 22 c0 -2 -7
-9 -15 -16 -13 -11 -14 -10 -9 4 5 14 24 23 24 12z m50 0 c0 -2 -7 -6 -15 -10
-8 -3 -15 -1 -15 4 0 6 7 10 15 10 8 0 15 -2 15 -4z m55 -6 c7 -12 -2 -12 -30
0 -19 8 -19 9 2 9 12 1 25 -3 28 -9z m-17 -24 c-2 -1 -12 -8 -23 -16 -18 -14
-19 -13 -8 1 7 9 10 19 6 23 -4 4 1 4 10 0 10 -3 17 -7 15 -8z m912 4 c0 -5
-10 -10 -22 -10 -19 0 -20 2 -8 10 19 13 30 13 30 0z m-991 -3 c-2 -1 -13 -9
-24 -17 -19 -14 -19 -14 -6 3 7 9 18 17 24 17 6 0 8 -1 6 -3z m38 -3 c-3 -3
-12 -4 -19 -1 -8 3 -5 6 6 6 11 1 17 -2 13 -5z m1073 -14 c0 -5 -4 -10 -10
-10 -5 0 -10 5 -10 10 0 6 5 10 10 10 6 0 10 -4 10 -10z m-985 -10 c-3 -5 -12
-10 -18 -10 -7 0 -6 4 3 10 19 12 23 12 15 0z m945 -5 c-7 -8 -17 -15 -22 -15
-6 0 -5 7 2 15 7 8 17 15 22 15 6 0 5 -7 -2 -15z m-1070 -5 c0 -5 -2 -10 -4
-10 -3 0 -8 5 -11 10 -3 6 -1 10 4 10 6 0 11 -4 11 -10z m1212 -22 c-7 -7 -12
-8 -12 -2 0 14 12 26 19 19 2 -3 -1 -11 -7 -17z m-1442 -22 c0 -3 -4 -8 -10
-11 -5 -3 -10 -1 -10 4 0 6 5 11 10 11 6 0 10 -2 10 -4z m1440 -46 c0 -5 -4
-10 -10 -10 -5 0 -10 5 -10 10 0 6 5 10 10 10 6 0 10 -4 10 -10z m-1336 -65
c3 -8 -2 -22 -11 -31 -15 -15 -15 -16 3 -14 39 4 64 0 64 -12 0 -6 -3 -8 -7
-5 -3 4 -17 0 -30 -9 -21 -13 -29 -13 -54 -2 -16 7 -29 19 -29 26 0 9 -7 11
-20 7 -16 -5 -20 -2 -19 17 0 13 3 17 6 11 7 -19 23 -16 24 5 1 15 2 15 6 0 7
-28 33 -30 45 -3 13 29 14 30 22 10z m1046 -55 c-8 -5 -28 -9 -45 -9 -30 2
-30 2 5 9 51 11 57 11 40 0z m-85 -8 c-18 -15 -65 -32 -65 -23 0 4 15 13 33
19 42 13 43 13 32 4z m100 -22 c-11 -5 -31 -9 -45 -10 -14 0 -56 -14 -95 -30
-67 -27 -102 -31 -60 -7 56 32 125 55 170 55 36 0 45 -2 30 -8z m-1035 -10 c0
-5 -5 -10 -11 -10 -5 0 -7 5 -4 10 3 6 8 10 11 10 2 0 4 -4 4 -10z m78 -37
c-2 -8 -7 -13 -12 -13 -5 1 -12 -3 -16 -10 -13 -22 -80 -38 -106 -26 -21 10
-18 12 32 18 47 6 120 38 86 38 -6 0 -12 4 -12 10 0 5 7 7 15 3 9 -3 15 -12
13 -20z m-148 -83 c0 -5 -2 -10 -4 -10 -3 0 -8 5 -11 10 -3 6 -1 10 4 10 6 0
11 -4 11 -10z m534 -19 c4 -5 -3 -7 -14 -4 -23 6 -26 13 -6 13 8 0 17 -4 20
-9z m-464 -32 c0 -17 -30 -22 -56 -10 -14 6 -23 15 -20 19 7 11 76 2 76 -9z
m690 17 c0 -2 -7 -7 -16 -10 -8 -3 -12 -2 -9 4 6 10 25 14 25 6z"/>
<path d="M565 970 c4 -6 11 -8 16 -5 14 9 11 15 -7 15 -8 0 -12 -5 -9 -10z"/>
<path d="M668 859 c-39 -10 -48 -18 -41 -34 12 -33 80 -7 71 28 -2 10 -11 12
-30 6z"/>
<path d="M698 800 c-14 -4 -47 -7 -72 -6 -67 3 -56 -11 12 -16 68 -5 89 -1 96
18 6 16 3 16 -36 4z"/>
<path d="M630 750 c0 -5 13 -10 29 -10 17 0 33 5 36 10 4 6 -8 10 -29 10 -20
0 -36 -4 -36 -10z"/>
<path d="M118 113 c6 -2 18 -2 25 0 6 3 1 5 -13 5 -14 0 -19 -2 -12 -5z"/>
<path d="M5 1070 c-3 -5 1 -10 10 -10 9 0 13 5 10 10 -3 6 -8 10 -10 10 -2 0
-7 -4 -10 -10z"/>
<path d="M0 1009 c0 -5 5 -7 10 -4 5 3 10 8 10 11 0 2 -4 4 -10 4 -5 0 -10 -5
-10 -11z"/>
<path d="M1390 450 c-12 -7 -12 -12 -3 -21 10 -10 14 -9 19 5 8 22 2 27 -16
16z"/>
<path d="M1428 393 c6 -2 12 -11 12 -19 0 -20 17 -17 42 6 l22 20 -45 -1 c-24
0 -38 -3 -31 -6z"/>
</g>
</svg>
