<?xml version="1.0" standalone="no"?>
<!DOCTYPE svg PUBLIC "-//W3C//DTD SVG 20010904//EN"
 "http://www.w3.org/TR/2001/REC-SVG-20010904/DTD/svg10.dtd">
<svg version="1.0" xmlns="http://www.w3.org/2000/svg"
 width="70.000000pt" height="70.000000pt" viewBox="0 0 70.000000 70.000000"
 preserveAspectRatio="xMidYMid meet">
<metadata>
Created by potrace 1.14, written by Peter Selinger 2001-2017
</metadata>
<g transform="translate(0.000000,70.000000) scale(0.100000,-0.100000)"
fill="#000000" stroke="none">
<path d="M54 646 l-34 -34 0 -262 0 -262 34 -34 34 -34 267 0 267 0 34 34 34
34 0 262 0 262 -34 34 -34 34 -267 0 -267 0 -34 -34z m575 10 c47 -25 51 -48
51 -306 0 -258 -4 -281 -51 -306 -37 -19 -504 -21 -544 -2 -51 23 -55 46 -55
310 1 259 4 278 51 304 36 20 509 20 548 0z"/>
<path d="M227 352 l-119 -127 127 -3 c69 -1 180 -1 247 0 l120 3 -117 125
c-65 69 -122 126 -129 127 -6 2 -64 -55 -129 -125z m142 72 c-9 -11 -15 -12
-25 -3 -11 9 -12 15 -3 25 9 11 15 12 25 3 11 -9 12 -15 3 -25z m-40 -50 c-14
-14 -17 -14 -29 0 -10 13 -10 19 0 32 12 14 15 14 29 0 14 -15 14 -17 0 -32z
m80 0 c-14 -14 -17 -14 -29 0 -10 13 -10 19 0 32 12 14 15 14 29 0 14 -15 14
-17 0 -32z m-41 -41 c-10 -12 -14 -12 -26 1 -13 13 -13 17 -2 31 13 16 15 15
27 -1 10 -13 10 -21 1 -31z m-73 27 c4 -6 1 -17 -5 -26 -10 -11 -16 -12 -26
-3 -11 9 -11 15 -3 25 14 17 25 18 34 4z m154 -4 c8 -10 8 -16 -3 -25 -10 -9
-16 -8 -26 3 -12 15 -6 36 9 36 5 0 14 -6 20 -14z m-194 -36 c4 -6 1 -17 -5
-26 -10 -11 -16 -12 -26 -3 -11 9 -11 15 -3 25 14 17 25 18 34 4z m74 -26 c-9
-11 -15 -12 -25 -3 -11 9 -12 15 -3 25 9 11 15 12 25 3 11 -9 12 -15 3 -25z
m80 0 c-9 -11 -15 -12 -25 -3 -11 9 -12 15 -3 25 9 11 15 12 25 3 11 -9 12
-15 3 -25z m80 23 c8 -10 7 -17 -1 -25 -15 -15 -39 3 -31 24 7 18 17 18 32 1z
m-276 -41 c8 -21 -17 -40 -31 -23 -9 10 -8 17 0 25 16 16 25 15 31 -2z m76
-22 c-9 -11 -15 -12 -25 -3 -11 9 -12 15 -3 25 9 11 15 12 25 3 11 -9 12 -15
3 -25z m80 0 c-9 -11 -15 -12 -25 -3 -11 9 -12 15 -3 25 9 11 15 12 25 3 11
-9 12 -15 3 -25z m80 0 c-9 -11 -15 -12 -25 -3 -11 9 -12 15 -3 25 9 11 15 12
25 3 11 -9 12 -15 3 -25z m80 22 c9 -10 7 -16 -5 -27 -13 -10 -17 -10 -24 1
-9 14 -3 40 10 40 4 0 13 -6 19 -14z m-359 -36 c0 -5 -7 -10 -16 -10 -8 0 -12
5 -9 10 3 6 10 10 16 10 5 0 9 -4 9 -10z m75 0 c3 -5 -1 -10 -10 -10 -9 0 -13
5 -10 10 3 6 8 10 10 10 2 0 7 -4 10 -10z m80 0 c3 -5 -1 -10 -10 -10 -9 0
-13 5 -10 10 3 6 8 10 10 10 2 0 7 -4 10 -10z m80 0 c3 -5 -1 -10 -10 -10 -9
0 -13 5 -10 10 3 6 8 10 10 10 2 0 7 -4 10 -10z m80 0 c3 -5 -1 -10 -10 -10
-9 0 -13 5 -10 10 3 6 8 10 10 10 2 0 7 -4 10 -10z m80 0 c3 -5 -1 -10 -10
-10 -9 0 -13 5 -10 10 3 6 8 10 10 10 2 0 7 -4 10 -10z"/>
</g>
</svg>
