<svg width="0" height="0" class="hidden">
  <symbol xmlns="http://www.w3.org/2000/svg" viewBox="0 0 36 36" id="full">
    <path d="M31.48 31.63h-8.43v4.23H35.7V23.15h-4.22v8.48zM4.22 23.15H0v12.71h12.65v-4.23H4.22v-8.48zM0 12.71h4.22V4.24h8.43V0H0v12.71zM23.05 0v4.24h8.43v8.47h4.22V0H23.05z"></path>
  </symbol>
  <symbol xmlns="http://www.w3.org/2000/svg" viewBox="0 0 220 220" id="play">
    <path d="M110 8.892a101.126 101.126 0 0199.206 120.852 101.133 101.133 0 01-79.462 79.462A101.128 101.128 0 018.892 110 101.247 101.247 0 01110 8.892zM110 0a110 110 0 100 220 110 110 0 000-220z"></path>
    <path d="M167.954 110L76.528 49.912c.118 90.586 0 46.138 0 120.176L167.954 110z"></path>
  </symbol>
  <symbol xmlns="http://www.w3.org/2000/svg" viewBox="0 0 23 30" id="play-small">
    <path d="M22.35 14.75L0 0v29.49l22.35-14.74z"></path>
  </symbol>
  <symbol xmlns="http://www.w3.org/2000/svg" viewBox="0 0 38 30" id="speaker">
    <path d="M17.86 0L3.63 10.42v8.65l14.23 10.42c-.03-22.23 0-11.32 0-29.49z"></path>
    <path d="M0 21.92h7.47V7.56H0v14.36zm27 7.22a1.74 1.74 0 01-1.61-1.07 1.761 1.761 0 01.93-2.31 11.82 11.82 0 003.78-2.56 12 12 0 003.49-8.45 12 12 0 00-3.52-8.45 12 12 0 00-3.78-2.57 1.76 1.76 0 01-.93-2.3A1.72 1.72 0 0127.65.5a15.49 15.49 0 019.41 14.22c-.001 2.06-.412 4.1-1.21 6a15.298 15.298 0 01-3.31 4.91A15.2 15.2 0 0127.65 29a1.63 1.63 0 01-.65.14z"></path>
    <path d="M23.69 22.08a1.65 1.65 0 01-.64-3.17 4.5 4.5 0 002.74-4.16 4.421 4.421 0 00-.35-1.75 4.5 4.5 0 00-1-1.43 4.618 4.618 0 00-1.43-1 1.64 1.64 0 011.28-3 7.84 7.84 0 012.51 12.7 7.65 7.65 0 01-2.47 1.67c-.202.09-.42.137-.64.14z"></path>
  </symbol>
  <symbol xmlns="http://www.w3.org/2000/svg" viewBox="0 0 792 792" id="pause">
    <g>
      <g id="_x38__12_">
        <g>
          <path d="M282.856,0H169.714c-31.228,0-56.571,25.344-56.571,56.571v678.857c0,31.228,25.344,56.571,56.571,56.571h113.143
				c31.256,0,56.572-25.315,56.572-56.571V56.571C339.428,25.344,314.112,0,282.856,0z M622.285,0H509.143
				c-31.256,0-56.572,25.344-56.572,56.571v678.857c0,31.228,25.316,56.571,56.572,56.571h113.143
				c31.256,0,56.572-25.315,56.572-56.571V56.571C678.857,25.344,653.541,0,622.285,0z"></path>
        </g>
      </g>
    </g>
    <g></g>
    <g></g>
    <g></g>
    <g></g>
    <g></g>
    <g></g>
    <g></g>
    <g></g>
    <g></g>
    <g></g>
    <g></g>
    <g></g>
    <g></g>
    <g></g>
    <g></g>
  </symbol>
  <symbol xmlns="http://www.w3.org/2000/svg" viewBox="0 0 24 24" id="next" role="img" stroke-width="1.7142857142857142" stroke-linecap="square" stroke-linejoin="miter" fill="none">
    <title id="chevronsRightIconTitle">Chevrons Right</title>
    <polyline points="13 7 18 12 13 17 13 17"></polyline>
    <polyline points="7 7 12 12 7 17 7 17"></polyline>
  </symbol>
  <symbol xmlns="http://www.w3.org/2000/svg" viewBox="0 0 24 24" id="prev" role="img" stroke-width="1.7142857142857142" stroke-linecap="square" stroke-linejoin="miter" fill="none">
    <title id="chevronsLeftIconTitle">Chevron Left</title>
    <polyline points="11 17 6 12 11 7 11 7"></polyline>
    <polyline points="17 17 12 12 17 7 17 7"></polyline>
  </symbol>
  <symbol xmlns="http://www.w3.org/2000/svg" viewBox="0 0 24 24" id="download" role="img" stroke-width="3.4285714285714284" stroke-linecap="square" stroke-linejoin="miter">
    <title id="downloadIconTitle">Download</title>
    <path d="M12,3 L12,16"></path>
    <polyline points="7 12 12 17 17 12"></polyline>
    <path d="M20,21 L4,21"></path>
  </symbol>
  <symbol xmlns="http://www.w3.org/2000/svg" viewBox="0 0 24 24" id="minimise" role="img" stroke-width="3" stroke-linecap="square" stroke-linejoin="miter" fill="none">
    <title id="minimiseIconTitle">Minimise View</title>
    <polyline points="8 3 8 8 3 8"></polyline>
    <polyline points="21 8 16 8 16 3"></polyline>
    <polyline points="3 16 8 16 8 21"></polyline>
    <polyline points="16 21 16 16 21 16"></polyline>
  </symbol>
</svg>