<svg width="0" height="0" class="hidden">
  <symbol xmlns="http://www.w3.org/2000/svg" viewBox="0 0 27 30" id="back">
    <path d="M3.8 14.75l22.34 14.74V0L3.8 14.75z"></path>
    <path d="M0 29.49h4.19V0H0v29.49z"></path>
  </symbol>
  <symbol xmlns="http://www.w3.org/2000/svg" viewBox="0 0 36 36" id="full">
    <path d="M31.48 31.63h-8.43v4.23H35.7V23.15h-4.22v8.48zM4.22 23.15H0v12.71h12.65v-4.23H4.22v-8.48zM0 12.71h4.22V4.24h8.43V0H0v12.71zM23.05 0v4.24h8.43v8.47h4.22V0H23.05z"></path>
  </symbol>
  <symbol xmlns="http://www.w3.org/2000/svg" viewBox="0 0 49 26" id="logo">
    <path d="M49 26H0L24.5 0 49 26zM13.307 13.13l3.337 3.54 3.337-3.54-3.337-3.549-3.336 3.55zm3.337 11.875l3.337-3.539-3.337-3.55-3.336 3.55 3.336 3.54zm15.764 0l3.337-3.539-3.337-3.55-3.389 3.55 3.39 3.54zm-3.94-19.602a.374.374 0 01-.08.094 268.741 268.741 0 01-3.152 3.351c-.092.094 0 .157 0 .241l3.074 3.267.144.136 3.337-3.529-3.324-3.56zM8.787 25.005l.132-.136 3.074-3.256a.199.199 0 00.076-.152.199.199 0 00-.076-.152c-.933-.963-1.84-1.948-2.759-2.922l-.447-.47-3.336 3.549 3.336 3.54zm8.447-16.052l3.337 3.54.105-.095 3.14-3.33c.105-.115 0-.178 0-.262L20.743 5.56l-.131-.136-3.377 3.529zm0 8.377l3.337 3.54.17-.168c1-1.048 2.01-2.095 3.022-3.215a.23.23 0 00.067-.074.184.184 0 00.023-.088.197.197 0 00-.023-.09.23.23 0 00-.067-.073c-.945-.994-1.891-1.99-2.824-2.994l-.368-.377-3.337 3.539zm15.764 0l3.337 3.54 3.337-3.54-3.337-3.54L33 17.33zm-4.532-3.55v.073L25.3 17.215c-.105.094-.065.157 0 .24l2.943 3.142c.079.094.17.188.276.293l3.337-3.54-3.39-3.57zM12.73 20.848a.293.293 0 01.065-.084l3.166-3.36c.092-.106 0-.158 0-.242l-3.113-3.267a.713.713 0 00-.145-.125L9.38 17.298l3.35 3.55zm19.626-4.188l3.337-3.54-3.337-3.528-3.337 3.539 3.337 3.529zm-7.882-8.377l3.337-3.54-3.285-3.466h-.065l-3.206 3.435a.135.135 0 00-.03.084c0 .03.01.058.03.084l3.219 3.403zm0 8.377l3.337-3.54L24.5 9.581l-3.337 3.55 3.31 3.529zm0 8.377l3.337-3.54-3.337-3.55-3.31 3.519 3.31 3.57zm15.764 0l3.337-3.54-3.324-3.518h-.066l-3.218 3.382c-.105.115 0 .168 0 .241l2.627 2.838.644.597zm-38.346.199h5.99l-2.969-3.142-3.021 3.142zm39.278 0h5.938l-2.969-3.142-2.969 3.142zm-17.616 0l-2.982-3.142-2.982 3.142h5.964zm9.76 0h5.938l-2.968-3.142-2.97 3.142zm-1.917 0l-2.97-3.142-2.968 3.142h5.938zm-15.764 0l-2.97-3.142-2.968 3.142h5.938z"></path>
  </symbol>
  <symbol xmlns="http://www.w3.org/2000/svg" viewBox="0 0 27 30" id="next">
    <path d="M22.35 14.75L0 0v29.49l22.35-14.74z"></path>
    <path d="M26.15 0h-4.19v29.49h4.19V0z"></path>
  </symbol>
  <symbol xmlns="http://www.w3.org/2000/svg" viewBox="0 0 220 220" id="play">
    <path d="M110 8.892a101.126 101.126 0 0199.206 120.852 101.133 101.133 0 01-79.462 79.462A101.128 101.128 0 018.892 110 101.247 101.247 0 01110 8.892zM110 0a110 110 0 100 220 110 110 0 000-220z"></path>
    <path d="M167.954 110L76.528 49.912c.118 90.586 0 46.138 0 120.176L167.954 110z"></path>
  </symbol>
  <symbol xmlns="http://www.w3.org/2000/svg" viewBox="0 0 23 30" id="play-small">
    <path d="M22.35 14.75L0 0v29.49l22.35-14.74z"></path>
  </symbol>
  <symbol xmlns="http://www.w3.org/2000/svg" viewBox="0 0 38 30" id="speaker">
    <path d="M17.86 0L3.63 10.42v8.65l14.23 10.42c-.03-22.23 0-11.32 0-29.49z"></path>
    <path d="M0 21.92h7.47V7.56H0v14.36zm27 7.22a1.74 1.74 0 01-1.61-1.07 1.761 1.761 0 01.93-2.31 11.82 11.82 0 003.78-2.56 12 12 0 003.49-8.45 12 12 0 00-3.52-8.45 12 12 0 00-3.78-2.57 1.76 1.76 0 01-.93-2.3A1.72 1.72 0 0127.65.5a15.49 15.49 0 019.41 14.22c-.001 2.06-.412 4.1-1.21 6a15.298 15.298 0 01-3.31 4.91A15.2 15.2 0 0127.65 29a1.63 1.63 0 01-.65.14z"></path>
    <path d="M23.69 22.08a1.65 1.65 0 01-.64-3.17 4.5 4.5 0 002.74-4.16 4.421 4.421 0 00-.35-1.75 4.5 4.5 0 00-1-1.43 4.618 4.618 0 00-1.43-1 1.64 1.64 0 011.28-3 7.84 7.84 0 012.51 12.7 7.65 7.65 0 01-2.47 1.67c-.202.09-.42.137-.64.14z"></path>
  </symbol>
  <symbol xmlns="http://www.w3.org/2000/svg" viewBox="0 0 20 20" id="pinterest">
    <path d="M10 0a10 10 0 00-3.64 19.3c-.1-.79-.17-2 .03-2.87l1.17-4.97s-.3-.6-.3-1.48c0-1.39.81-2.42 1.82-2.42.85 0 1.27.64 1.27 1.4 0 .86-.55 2.14-.84 3.33-.24 1 .5 1.81 1.49 1.81 1.78 0 3.14-1.87 3.14-4.57 0-2.4-1.72-4.06-4.18-4.06A4.33 4.33 0 005.44 9.8c0 .86.33 1.78.74 2.28.08.1.09.19.06.29l-.28 1.13c-.04.18-.15.23-.33.14-1.26-.59-2.04-2.4-2.04-3.88 0-3.15 2.3-6.04 6.62-6.04 3.46 0 6.17 2.46 6.17 5.77 0 3.45-2.18 6.22-5.2 6.22-1 0-1.96-.53-2.28-1.15l-.63 2.37a10.999 10.999 0 01-1.24 2.63A9.999 9.999 0 0014.16.923 10 10 0 0010 0z"></path>
  </symbol>
  <symbol xmlns="http://www.w3.org/2000/svg" viewBox="0 0 23 16" id="youtube">
    <path d="M9.03 11.38V4.62L14.97 8l-5.94 3.38zm13.2-8.88a2.85 2.85 0 00-2-2.02C18.46 0 11.35 0 11.35 0s-7.1 0-8.87.48a2.85 2.85 0 00-2 2.02C0 4.28 0 8 0 8s0 3.72.47 5.5a2.85 2.85 0 002.01 2.02c1.77.48 8.88.48 8.88.48s7.1 0 8.87-.48a2.85 2.85 0 002-2.02c.48-1.78.48-5.5.48-5.5s0-3.72-.47-5.5h-.01z"></path>
  </symbol>
  <symbol xmlns="http://www.w3.org/2000/svg" viewBox="0 0 21 20" id="instagram">
    <path d="M12.02 0c1.8 0 2.18.02 3.1.06 1.06.05 1.79.22 2.42.47.66.25 1.22.6 1.77 1.15.56.55.9 1.11 1.16 1.77.25.63.41 1.36.46 2.43.05.95.06 1.32.06 3.32v1.6c0 2-.01 2.37-.06 3.32a7.328 7.328 0 01-.46 2.42c-.26.66-.6 1.22-1.15 1.77-.56.56-1.12.9-1.78 1.16-.63.25-1.36.41-2.42.46-.95.05-1.33.06-3.33.06H10.2c-2 0-2.37-.01-3.33-.06a7.339 7.339 0 01-2.42-.46 4.91 4.91 0 01-1.77-1.15 4.9 4.9 0 01-1.16-1.78 7.35 7.35 0 01-.46-2.42 55.204 55.204 0 01-.06-3.1V8.97c0-1.8.02-2.18.06-3.1.05-1.06.22-1.79.46-2.42.26-.66.6-1.22 1.16-1.77A4.7 4.7 0 014.45.53 7.35 7.35 0 016.87.06C7.79.02 8.17 0 9.97 0h2.05zm.02 1.8H9.95c-1.73 0-2.1.02-3 .06-.97.04-1.5.2-1.85.34-.47.18-.8.4-1.15.75-.35.35-.57.68-.75 1.15-.13.35-.3.88-.34 1.86-.04.9-.06 1.26-.06 3v2.08c0 1.74.02 2.1.06 3 .04.97.2 1.5.34 1.85.18.47.4.8.75 1.15.35.35.68.57 1.15.75.35.14.88.3 1.86.34.97.05 1.32.06 3.48.06h1.11c2.17 0 2.51-.01 3.49-.06.97-.04 1.5-.2 1.85-.34.47-.18.8-.4 1.15-.75.35-.35.57-.68.75-1.15.14-.35.3-.88.34-1.85.05-.98.06-1.32.06-3.49v-1.1c0-2.17-.01-2.52-.06-3.5-.04-.97-.2-1.5-.34-1.85a3.1 3.1 0 00-.75-1.15 3.09 3.09 0 00-1.15-.75 5.6 5.6 0 00-1.85-.34c-1-.048-2-.068-3-.06zM11 4.86a5.135 5.135 0 110 10.27 5.135 5.135 0 010-10.27zm0 1.8a3.335 3.335 0 100 6.67 3.335 3.335 0 000-6.67zm5.33-3.2a1.2 1.2 0 110 2.4 1.2 1.2 0 010-2.4z"></path>
  </symbol>
  <symbol xmlns="http://www.w3.org/2000/svg" viewBox="0 0 13 20" id="facebook">
    <path d="M3.78 20l-.03-8.75H0V7.5h3.75V5c0-3.37 2.09-5 5.1-5 1.44 0 2.68.1 3.04.15v3.53H9.8c-1.63 0-1.95.78-1.95 1.92v1.9h4.65l-1.25 3.75h-3.4V20H3.78z"></path>
  </symbol>
  <symbol xmlns="http://www.w3.org/2000/svg" viewBox="0 0 20 17" id="twitter">
    <path d="M20 1.88c-.75.37-1.5.5-2.38.62.88-.5 1.5-1.25 1.75-2.25a8.2 8.2 0 01-2.62 1 4.36 4.36 0 00-3-1.25c-2.13 0-4 1.88-4 4.13 0 .37 0 .62.13.87A11.5 11.5 0 011.38.75a3.8 3.8 0 00-.5 2.13 4.1 4.1 0 001.87 3.37c-.63 0-1.25-.25-1.88-.5 0 2 1.38 3.63 3.25 4-.37.13-.75.13-1.12.13-.25 0-.5 0-.75-.13.5 1.63 2 2.88 3.88 2.88A7.95 7.95 0 011 14.38H0a12.2 12.2 0 006.25 1.87c7.5 0 11.63-6.25 11.63-11.63v-.5A7.27 7.27 0 0020 1.88z"></path>
  </symbol>
  <symbol xmlns="http://www.w3.org/2000/svg" viewBox="0 0 128 128" id="minus">
    <path fill="none" stroke-width="12" stroke-miterlimit="10" d="M13.787 64.001h100.426"></path>
  </symbol>
  <symbol xmlns="http://www.w3.org/2000/svg" viewBox="0 0 128 128" id="plus">
    <path d="M13.787 64.001h100.426M64 13.787v100.426" fill="none" stroke-width="12" stroke-miterlimit="10"></path>
    <symbol xmlns="http://www.w3.org/2000/svg" viewBox="0 0 30 8" id="arrow-prev">
    <path d="M5.72254 8C3.90173 6.31339 1.99422 5.08262 0 4.30769V3.69231C1.99422 2.89459 3.90173 1.66382 5.72254 0H7.23988C6.37283 1.4359 5.53468 2.52991 4.72543 3.28205H30V4.71795H4.72543C5.53468 5.47009 6.37283 6.5641 7.23988 8H5.72254Z" fill="white"></path>
  </symbol>
  <symbol xmlns="http://www.w3.org/2000/svg" viewBox="0 0 30 8" id="arrow-next">
    <path d="M24.2775 1.97284e-06C26.0983 1.68661 28.0058 2.91738 30 3.69231L30 4.30769C28.0058 5.10541 26.0983 6.33618 24.2775 8L22.7601 8C23.6272 6.5641 24.4653 5.47009 25.2746 4.71795L3.48964e-07 4.71795L5.01636e-07 3.28205L25.2746 3.28205C24.4653 2.52992 23.6272 1.4359 22.7601 1.86378e-06L24.2775 1.97284e-06Z" fill="white"></path>
  </symbol>
</svg>