<?xml version="1.0" standalone="no"?>
<!DOCTYPE svg PUBLIC "-//W3C//DTD SVG 20010904//EN"
 "http://www.w3.org/TR/2001/REC-SVG-20010904/DTD/svg10.dtd">
<svg version="1.0" xmlns="http://www.w3.org/2000/svg"
 width="128.000000pt" height="128.000000pt" viewBox="0 0 128.000000 128.000000"
 preserveAspectRatio="xMidYMid meet">
<metadata>
Created by potrace 1.14, written by Peter Selinger 2001-2017
</metadata>
<g transform="translate(0.000000,128.000000) scale(0.100000,-0.100000)"
fill="#000000" stroke="none">
<path d="M520 1240 c-14 -5 -52 -16 -85 -26 -33 -10 -62 -20 -65 -24 -9 -10
-60 -41 -60 -35 0 14 -137 -117 -167 -160 -37 -53 -72 -122 -66 -129 4 -3 1
-6 -5 -6 -7 0 -11 -3 -11 -7 1 -5 0 -10 -1 -13 -1 -3 -3 -12 -5 -20 -2 -8 -6
-28 -10 -45 -16 -65 -13 -222 5 -287 19 -67 42 -130 50 -138 3 -3 18 -25 34
-50 33 -51 153 -170 172 -170 7 0 14 -4 16 -8 4 -10 111 -60 143 -67 14 -3 37
-8 53 -12 34 -9 216 -8 257 1 38 8 131 45 172 67 60 34 156 124 200 189 36 53
84 162 90 205 11 78 10 230 -2 268 -7 23 -14 47 -15 52 -26 103 -107 216 -225
313 -25 21 -148 82 -166 82 -9 0 -19 3 -23 7 -10 10 -41 14 -156 17 -58 2
-116 0 -130 -4z"/>
</g>
</svg>
